<svg xmlns="http://www.w3.org/2000/svg" version="1.1" xmlns:xlink="http://www.w3.org/1999/xlink" xmlns:svgjs="http://svgjs.dev/svgjs" width="300" height="18" viewBox="0 0 1500 94"><g transform="matrix(1,0,0,1,-0.9090909090909918,-0.668944562264528)"><svg viewBox="0 0 396 25" data-background-color="#89939e" preserveAspectRatio="xMidYMid meet" height="94" width="1500" xmlns="http://www.w3.org/2000/svg" xmlns:xlink="http://www.w3.org/1999/xlink"><g id="tight-bounds" transform="matrix(1,0,0,1,0.2400000000000091,0.17791078783631065)"><svg viewBox="0 0 395.52 24.644178424327404" height="24.644178424327404" width="395.52"><g><svg viewBox="0 0 395.52 24.644178424327404" height="24.644178424327404" width="395.52"><g><svg viewBox="0 0 395.52 24.644178424327404" height="24.644178424327404" width="395.52"><g id="textblocktransform"><svg viewBox="0 0 395.52 24.644178424327404" height="24.644178424327404" width="395.52" id="textblock"><g><svg viewBox="0 0 395.52 24.644178424327404" height="24.644178424327404" width="395.52"><g transform="matrix(1,0,0,1,0,0)"><svg width="395.52" viewBox="5.68 -36.25 594.2900000000001 37.03" height="24.644178424327404" data-palette-color="#ffffff"><path d="M25.83 0L5.68 0 5.68-35.57 25.83-35.57Q33.8-35.57 40.08-31.17 46.35-26.77 46.35-18.07L46.35-18.07 46.35-17.45Q46.35-8.75 40.08-4.38 33.8 0 25.83 0L25.83 0ZM10.36-31.67L10.36-3.8 25.83-3.8Q32.34-3.8 36.98-7.08 41.61-10.36 41.61-17.45L41.61-17.45 41.61-18.07Q41.61-25.21 36.98-28.44 32.34-31.67 25.83-31.67L25.83-31.67 10.36-31.67ZM125.83 0L105.67 0 105.67-35.57 125.83-35.57Q133.8-35.57 140.07-31.17 146.35-26.77 146.35-18.07L146.35-18.07 146.35-17.45Q146.35-8.75 140.07-4.38 133.8 0 125.83 0L125.83 0ZM110.36-31.67L110.36-3.8 125.83-3.8Q132.34-3.8 136.97-7.08 141.61-10.36 141.61-17.45L141.61-17.45 141.61-18.07Q141.61-25.21 136.97-28.44 132.34-31.67 125.83-31.67L125.83-31.67 110.36-31.67ZM155.2 0L149.99 0 172.34-35.78 177.6-35.78 199.84 0 194.32 0 174.78-32.45 155.2 0ZM191.61-9.22L158.12-9.22 160.41-13.18 189.26-13.18 191.61-9.22ZM227.39 0L222.59 0 222.59-13.33 200.35-35.57 207.13-35.57 222.44-19.79 225.04-16.51 225.25-16.51 227.91-19.79 243.27-35.57 249.63-35.57 227.39-13.33 227.39 0ZM305.19 0L299.99 0 322.33-35.78 327.59-35.78 349.83 0 344.31 0 324.78-32.45 305.19 0ZM341.6-9.22L308.11-9.22 310.4-13.18 339.26-13.18 341.6-9.22ZM377.38 0L372.69 0 372.69-31.67 352.43-31.67 352.43-35.57 397.53-35.57 397.53-31.67 377.38-31.67 377.38 0ZM427.38 0L422.69 0 422.69-31.67 402.43-31.67 402.43-35.57 447.53-35.57 447.53-31.67 427.38-31.67 427.38 0ZM455.19 0L449.98 0 472.32-35.78 477.58-35.78 499.82 0 494.3 0 474.77-32.45 455.19 0ZM491.59-9.22L458.1-9.22 460.39-13.18 489.25-13.18 491.59-9.22ZM526.23 0.78L526.23 0.78Q521.85 0.78 517.71-0.34 513.57-1.46 510.37-3.78 507.16-6.09 505.24-9.58 503.31-13.07 503.31-17.76L503.31-17.76Q503.31-22.5 505.24-25.96 507.16-29.43 510.37-31.72 513.57-34.01 517.71-35.13 521.85-36.25 526.23-36.25L526.23-36.25Q529.3-36.25 532.68-35.73 536.07-35.21 539.06-33.88 542.06-32.55 544.27-30.26 546.49-27.97 547.21-24.38L547.21-24.38 542.53-24.38Q541.85-26.72 539.98-28.23 538.1-29.74 535.7-30.65 533.31-31.56 530.78-31.9 528.26-32.24 526.23-32.24L526.23-32.24Q522.89-32.24 519.64-31.3 516.38-30.36 513.8-28.54 511.23-26.72 509.64-24.01 508.05-21.3 508.05-17.76L508.05-17.76Q508.05-10.31 513.65-6.8 519.25-3.28 526.23-3.28L526.23-3.28Q528-3.28 530.68-3.62 533.36-3.96 535.91-4.82 538.46-5.68 540.39-7.24 542.32-8.8 542.53-11.2L542.53-11.2 547.21-11.2Q546.9-7.6 544.66-5.26 542.42-2.92 539.27-1.59 536.12-0.26 532.58 0.26 529.04 0.78 526.23 0.78ZM560.34 0L555.65 0 555.65-35.57 560.34-35.57 560.34-13.85 590.86-35.57 598.1-35.57 560.34-9.48 560.34 0ZM599.97 0L592.68 0 569.56-18.96 573.31-21.3 599.97 0Z" opacity="1" transform="matrix(1,0,0,1,0,0)" fill="#ffffff" class="wordmark-text-0" data-fill-palette-color="primary" id="text-0"></path></svg></g></svg></g></svg></g></svg></g></svg></g><defs></defs></svg><rect width="300" height="20" fill="transparent" stroke="none" visibility="hidden"></rect></g></svg></g></svg>